P3
# Created by IrfanView
50 46
255
0 0 0 0 0 0 0 0 0 0 0 0 0 0 0 
0 0 0 0 0 0 0 0 0 0 0 0 0 0 0 
0 0 0 0 0 0 0 0 0 0 0 0 0 0 0 
0 0 0 0 0 0 0 0 0 0 0 0 0 0 0 
0 0 0 0 0 0 0 0 0 0 0 0 0 0 0 
0 0 0 0 0 0 0 0 0 0 0 0 0 0 0 
0 0 0 0 0 0 0 0 0 0 0 0 0 0 0 
0 0 0 0 0 0 0 0 0 0 0 0 0 0 0 
0 0 0 0 0 0 0 0 0 0 0 0 0 0 0 
0 0 0 0 0 0 0 0 0 0 0 0 0 0 0 
0 0 0 0 0 0 0 0 0 0 0 0 0 0 0 
0 0 0 0 0 0 0 0 0 0 0 0 0 0 0 
0 0 0 0 0 0 0 0 0 0 0 0 0 0 0 
0 0 0 0 0 0 0 0 0 7 7 0 6 6 0 
46 46 0 35 34 3 16 25 14 14 23 15 18 17 18 
16 16 16 0 0 0 0 0 0 0 0 0 0 0 0 
0 0 0 0 0 0 0 0 0 0 0 0 0 0 0 
0 0 0 0 0 0 0 0 0 0 0 0 0 0 0 
0 0 0 0 0 0 0 0 0 0 0 0 0 0 0 
0 0 0 0 0 0 0 0 0 0 0 0 0 0 0 
0 0 0 0 0 0 0 0 0 0 0 0 0 0 0 
0 0 0 0 0 0 0 0 0 0 0 0 0 0 0 
0 0 0 0 0 0 0 0 0 0 0 0 0 0 0 
0 0 0 0 0 0 0 0 0 13 13 0 7 7 0 
140 140 0 107 104 11 43 74 50 35 66 54 47 47 65 
41 41 58 0 0 0 0 0 0 0 0 0 0 0 0 
0 0 0 0 0 0 0 0 0 0 0 0 0 0 0 
0 0 0 0 0 0 0 0 0 0 0 0 0 0 0 
0 0 0 0 0 0 0 0 0 0 0 0 0 0 0 
0 0 0 0 0 0 0 0 0 0 0 0 0 0 0 
0 0 0 0 0 0 0 0 0 0 0 0 0 0 0 
0 0 0 0 0 0 0 0 0 0 0 0 0 0 0 
0 0 0 0 0 0 0 0 0 0 0 0 0 0 0 
0 0 0 0 0 0 0 0 0 132 132 0 188 188 0 
242 242 0 211 210 2 155 162 10 149 155 10 153 152 13 
157 156 11 95 98 5 0 0 24 0 16 13 0 0 0 
0 0 0 0 0 0 0 1 11 0 0 16 0 3 17 
0 0 17 0 10 12 0 8 0 0 0 0 0 0 0 
0 0 0 0 0 0 0 0 0 0 0 0 0 0 0 
0 0 0 0 0 0 0 0 0 0 0 0 0 0 0 
0 0 0 0 0 0 0 0 0 0 0 0 0 0 0 
0 0 0 0 0 0 0 0 0 0 0 0 0 0 0 
0 0 0 0 0 0 0 0 0 0 0 0 0 0 0 
0 0 0 0 0 0 0 0 0 5 5 0 0 0 0 
229 230 0 255 255 0 255 255 0 255 255 0 255 255 0 
255 255 0 255 255 0 255 255 1 171 173 0 0 0 0 
0 0 0 0 0 0 158 159 0 255 255 0 253 254 0 
253 253 0 255 255 0 195 197 0 24 24 0 0 0 0 
0 0 0 0 0 0 0 0 0 0 0 0 0 0 0 
0 0 0 0 0 0 0 0 0 0 0 0 0 0 0 
0 0 0 0 0 0 0 0 0 0 0 0 0 0 0 
0 0 0 0 0 0 0 0 0 0 0 0 0 0 0 
0 0 0 0 0 0 0 0 0 0 0 0 0 0 0 
0 0 0 0 0 0 22 22 0 0 0 0 0 0 0 
0 19 37 27 23 0 230 230 5 232 232 3 157 157 0 
151 151 0 156 156 1 99 99 2 71 71 0 255 255 0 
255 255 0 255 255 0 255 255 0 255 255 0 255 255 0 
255 255 0 255 255 0 255 255 0 255 255 0 128 125 0 
73 100 0 9 7 13 8 8 5 0 0 0 0 0 0 
0 0 0 0 0 0 0 0 0 0 0 0 0 0 0 
0 0 0 0 0 0 0 0 0 0 0 0 0 0 0 
0 0 0 0 0 0 0 0 0 0 0 0 0 0 0 
0 0 0 0 0 0 0 0 0 0 0 0 0 0 0 
0 0 0 105 105 0 208 208 0 130 130 0 101 101 0 
100 96 0 115 115 3 161 161 10 172 172 11 132 132 0 
132 132 0 189 189 1 251 251 2 255 255 0 255 255 0 
255 255 0 255 255 0 255 255 0 255 255 0 255 255 0 
255 255 0 255 255 0 255 255 0 255 255 0 255 255 0 
228 226 3 8 8 36 13 13 16 0 0 0 0 0 0 
0 0 0 0 0 0 0 0 0 0 0 0 0 0 0 
0 0 0 0 0 0 0 0 0 0 0 0 0 0 0 
0 0 0 0 0 0 0 0 0 0 0 0 0 0 0 
0 0 0 0 0 0 0 0 0 0 0 0 0 0 0 
0 0 0 121 121 0 255 255 0 255 255 0 255 255 0 
255 255 0 255 255 0 255 255 0 255 255 0 255 255 0 
255 255 0 255 255 0 255 255 0 255 255 0 255 255 0 
255 255 0 255 255 0 255 255 0 255 255 0 255 255 0 
255 255 0 255 255 0 220 220 0 95 95 16 240 240 2 
251 251 0 156 156 0 78 78 0 0 0 0 0 0 0 
0 0 0 0 0 0 0 0 0 0 0 0 0 0 0 
0 0 0 0 0 0 0 0 0 0 0 0 0 0 0 
0 0 0 0 0 0 0 0 0 0 0 0 0 0 0 
0 0 0 0 0 0 0 0 0 0 0 0 0 0 0 
0 0 0 80 80 0 255 255 0 255 255 0 255 255 0 
255 255 0 255 255 0 255 255 0 255 255 0 255 255 0 
255 255 0 255 255 0 255 255 0 255 255 0 255 255 0 
255 255 0 255 255 0 255 255 0 255 255 0 255 255 0 
255 255 0 255 255 0 198 198 0 0 0 11 247 247 0 
255 255 0 255 255 0 119 119 0 0 0 0 0 0 0 
0 0 0 0 0 0 0 0 0 0 0 0 0 0 0 
0 0 0 0 0 0 0 0 0 0 0 0 0 2 0 
0 0 0 0 0 0 0 0 0 0 0 0 0 0 0 
0 0 0 0 0 0 0 0 0 0 0 0 0 0 0 
0 0 0 0 0 0 36 36 0 215 215 1 254 254 2 
255 255 0 255 255 0 255 255 0 255 255 0 255 255 0 
255 255 0 255 255 0 255 255 0 255 255 0 255 255 0 
255 255 0 255 255 0 255 255 0 255 255 0 255 255 0 
255 255 0 255 255 0 181 181 0 230 230 200 0 0 72 
255 255 0 255 255 0 255 255 0 141 141 0 0 0 3 
0 0 1 0 0 0 0 0 0 0 0 0 0 0 0 
0 0 0 0 0 0 0 0 0 59 56 0 0 25 0 
0 19 0 0 0 0 0 0 0 0 0 0 0 0 0 
0 0 0 0 0 0 0 0 0 0 0 0 0 0 0 
0 0 0 0 0 0 0 0 0 41 41 9 47 47 15 
255 255 1 255 255 0 255 255 0 255 255 0 255 255 0 
255 255 0 255 255 0 255 255 0 255 255 0 255 255 0 
255 255 0 255 255 0 255 255 0 255 255 0 255 255 0 
255 255 0 255 255 0 222 222 0 8 8 0 22 22 45 
62 62 0 255 255 0 255 255 0 253 253 0 112 111 24 
70 73 16 0 0 0 0 0 0 0 0 0 0 0 0 
0 0 0 0 0 0 0 0 0 213 213 0 165 158 0 
1 48 0 7 3 0 0 0 0 0 0 0 0 0 0 
0 0 0 0 0 0 0 0 0 0 0 0 0 0 0 
0 0 0 0 0 0 0 0 0 0 0 0 0 0 0 
213 213 4 255 255 0 255 255 0 255 255 0 255 255 0 
255 255 0 255 255 0 255 255 0 255 255 0 255 255 0 
255 255 0 255 255 0 255 255 0 255 255 0 255 255 0 
255 255 0 255 255 0 255 255 0 178 178 0 5 5 0 
95 95 9 255 255 0 255 255 0 255 255 0 255 255 0 
177 177 0 0 0 0 0 0 0 0 0 0 0 0 0 
0 0 0 15 15 0 45 45 0 131 131 0 255 255 0 
204 200 0 172 172 0 20 20 0 0 0 0 0 0 0 
0 0 0 0 0 0 0 0 0 0 0 0 0 0 0 
0 0 0 0 0 0 0 0 0 0 0 0 0 0 0 
240 240 0 255 255 0 255 255 0 255 255 0 255 255 0 
255 255 0 255 255 0 255 255 0 255 255 0 255 255 0 
255 255 0 255 255 0 255 255 0 255 255 0 255 255 0 
255 255 0 255 255 0 255 255 0 255 255 0 208 235 0 
221 238 5 255 255 0 255 255 0 255 255 0 255 255 0 
166 166 1 0 0 0 0 0 0 0 0 0 0 0 0 
0 0 0 1 1 0 5 5 0 0 0 24 233 233 3 
255 255 0 255 255 0 214 214 0 191 191 0 10 10 0 
0 0 0 0 0 0 0 0 0 0 0 0 0 0 0 
0 0 0 0 0 0 0 0 0 0 0 0 0 0 0 
255 255 0 255 255 0 255 255 0 255 255 0 255 255 0 
255 255 0 255 255 0 255 255 0 255 255 0 255 255 0 
255 255 0 255 255 0 255 255 0 255 255 0 255 255 0 
255 255 0 255 255 0 255 255 0 255 86 0 255 0 0 
255 103 0 255 255 0 255 255 0 255 255 0 255 255 0 
173 173 6 16 16 35 0 0 0 0 0 0 0 0 0 
0 0 0 0 0 0 0 0 0 0 0 22 243 242 2 
255 255 0 255 255 0 230 230 0 216 216 0 54 54 0 
16 16 0 0 0 0 0 0 0 0 0 0 0 0 0 
0 0 0 0 0 0 0 0 0 6 7 1 0 0 2 
255 255 0 255 255 0 255 255 0 255 255 0 255 255 0 
255 255 0 255 255 0 255 255 0 255 255 0 255 255 0 
255 255 0 255 255 0 255 255 0 255 255 0 255 255 0 
255 255 0 255 255 0 255 255 0 255 64 0 255 0 0 
255 73 0 255 255 0 255 250 0 255 255 0 255 255 0 
180 179 4 12 12 32 0 0 0 0 0 0 0 0 0 
0 0 0 0 0 0 0 0 0 24 35 0 150 157 9 
255 254 0 249 249 0 255 255 0 255 255 0 255 255 0 
215 215 0 78 78 0 41 41 0 0 0 0 0 0 0 
0 0 0 0 0 0 0 0 0 46 44 25 47 44 42 
254 255 0 255 255 0 255 255 0 255 255 0 255 255 0 
255 255 0 255 255 0 255 255 0 255 255 0 255 255 0 
255 255 0 255 255 0 255 255 0 255 255 0 255 255 0 
255 255 0 255 255 0 255 195 0 255 24 0 255 0 0 
255 9 0 255 200 0 255 219 0 255 255 0 255 255 1 
96 103 7 0 0 0 0 0 0 0 0 0 0 0 0 
0 0 0 0 0 0 0 0 0 45 57 0 0 0 11 
77 76 0 110 110 4 241 242 7 255 255 0 255 255 0 
255 255 0 255 255 0 237 237 0 55 55 0 0 0 0 
0 0 0 0 0 0 0 0 0 26 39 43 20 40 71 
211 209 0 255 255 0 255 255 0 255 255 0 255 255 0 
255 255 0 255 255 0 255 255 0 255 255 0 255 255 0 
255 255 0 255 255 0 255 255 0 255 255 0 255 255 0 
255 255 0 255 255 0 255 195 0 255 24 0 255 0 0 
255 10 0 255 200 0 255 226 0 195 199 8 85 84 7 
0 2 26 0 0 0 0 0 0 0 0 0 0 0 0 
0 0 0 0 0 0 0 0 0 0 0 0 0 0 0 
0 0 0 1 0 14 169 156 24 255 255 0 255 255 0 
255 255 0 255 255 0 193 193 0 22 22 0 0 0 0 
0 0 0 0 0 0 0 0 0 49 30 36 56 25 58 
230 229 0 255 255 0 255 255 0 255 255 0 255 255 0 
255 255 0 255 255 0 255 255 0 255 255 0 255 255 0 
255 255 0 255 255 0 255 255 0 255 255 0 255 255 0 
255 255 0 255 255 0 255 255 0 255 50 0 255 0 0 
255 58 0 255 255 0 255 252 0 255 255 3 8 7 1 
0 0 4 0 0 0 0 0 0 0 0 0 0 0 0 
0 0 0 0 0 0 0 0 0 0 0 0 0 0 0 
0 0 0 0 0 0 124 124 0 255 255 0 252 252 0 
255 255 0 255 255 0 160 160 0 4 4 0 0 0 0 
0 0 0 0 0 0 0 0 0 0 0 0 0 0 0 
48 75 25 154 152 0 255 255 0 254 253 0 254 254 0 
254 254 0 255 255 0 255 255 0 255 255 0 255 255 0 
255 255 0 255 255 0 255 255 0 255 255 0 255 255 0 
255 255 0 255 255 0 255 255 0 255 215 0 255 192 0 
255 219 0 255 255 0 255 255 0 255 255 0 22 22 0 
0 0 0 0 0 0 0 0 0 0 0 0 0 0 0 
0 0 0 0 0 0 0 0 0 0 0 0 0 0 0 
0 0 0 0 0 0 4 39 2 0 79 2 93 100 18 
255 255 0 255 255 0 123 123 0 0 0 0 0 0 0 
0 0 0 0 0 0 0 0 0 0 0 0 0 0 0 
7 95 0 37 10 0 175 43 0 206 121 0 229 185 0 
235 203 0 255 255 0 255 255 0 255 255 0 255 255 0 
255 255 0 255 255 0 255 255 0 255 255 0 255 255 0 
255 255 0 255 255 0 255 255 0 255 255 0 255 255 0 
255 255 0 255 255 0 201 196 0 36 92 0 0 3 0 
0 0 0 0 0 0 0 0 0 0 0 0 0 0 0 
0 0 0 0 0 0 0 0 0 0 0 0 0 0 0 
0 0 0 0 0 0 6 23 0 8 47 0 40 43 8 
255 255 0 251 251 0 123 123 13 0 0 6 0 0 0 
0 0 0 0 0 0 0 0 0 0 0 0 0 0 0 
6 55 4 53 42 28 166 30 0 187 69 0 196 100 0 
198 105 0 218 157 0 246 233 0 255 255 0 255 255 0 
255 255 0 255 255 0 255 255 0 255 255 0 255 255 0 
255 255 0 255 255 0 255 255 0 255 255 0 255 255 0 
247 247 0 164 164 0 122 120 0 27 54 0 0 3 0 
0 0 0 0 0 0 0 0 0 0 0 0 0 0 0 
0 0 0 0 0 0 0 0 0 0 0 0 0 0 0 
0 0 0 0 0 0 13 8 11 30 19 26 0 0 1 
255 255 0 243 243 0 88 90 19 30 8 34 58 23 30 
35 27 32 0 0 0 0 0 0 0 0 0 0 0 0 
1 1 6 72 30 39 133 0 0 148 0 0 147 0 0 
147 0 0 157 0 0 227 182 0 255 255 0 255 255 0 
255 255 0 255 255 0 255 255 0 255 255 0 255 255 0 
255 255 0 255 255 0 255 255 0 255 255 0 255 255 0 
233 233 1 14 14 9 8 8 4 0 0 0 0 0 0 
0 0 0 0 0 0 0 0 0 0 0 0 0 0 0 
0 0 0 0 0 0 0 0 0 0 0 0 0 0 0 
0 0 0 0 0 0 35 16 23 78 34 53 11 7 4 
255 255 0 255 255 0 251 251 0 98 94 4 38 32 4 
48 42 13 54 22 35 0 0 0 0 0 0 0 0 0 
4 0 5 125 83 37 221 210 0 252 241 0 212 142 0 
204 119 0 168 23 0 174 41 0 204 120 0 252 248 0 
255 255 0 255 255 0 255 255 0 255 255 0 255 255 0 
255 255 0 255 255 0 255 255 0 255 255 0 255 255 0 
255 255 0 244 244 1 139 139 0 0 0 0 0 0 0 
0 0 0 0 0 0 0 0 0 0 0 0 0 0 0 
0 0 0 0 0 0 0 0 0 0 0 0 0 0 0 
0 0 0 0 0 0 116 118 1 240 243 1 255 255 0 
255 255 0 255 255 0 255 255 0 255 255 0 255 255 0 
255 255 0 124 63 2 5 2 9 0 0 0 0 0 0 
4 0 6 129 91 40 232 239 0 255 255 0 255 255 0 
255 255 0 255 255 0 255 255 0 255 255 0 255 255 0 
255 255 0 255 255 0 255 255 0 255 255 0 255 255 0 
255 255 0 255 255 0 255 255 0 255 255 0 255 255 0 
254 254 0 255 255 0 255 255 0 144 144 0 3 0 8 
0 0 0 0 0 0 0 0 0 0 0 0 0 0 0 
0 0 0 0 0 0 0 0 0 0 0 0 0 0 0 
0 0 0 0 0 0 70 70 2 145 145 3 165 165 0 
201 201 0 255 255 0 255 255 0 243 225 0 242 219 0 
223 160 0 106 40 0 0 0 0 0 0 0 0 0 0 
1 0 2 127 108 17 251 253 0 255 255 0 255 255 0 
255 255 0 255 255 0 255 255 0 255 255 0 255 255 0 
255 255 0 255 255 0 255 255 0 255 255 0 255 255 0 
133 133 2 152 152 1 191 191 0 245 245 0 255 255 0 
232 232 0 131 131 8 160 160 9 150 153 1 171 134 41 
0 0 6 0 0 0 0 0 0 0 0 0 0 0 0 
0 0 0 0 0 0 0 0 0 0 0 0 0 0 0 
0 0 0 0 0 0 0 0 0 0 0 0 0 0 0 
82 82 0 255 255 0 255 255 0 223 168 0 213 136 0 
143 0 0 41 8 0 0 0 0 0 0 0 0 0 0 
0 0 0 127 133 0 255 255 0 255 255 0 255 255 0 
255 255 0 255 255 0 255 255 0 255 255 0 255 255 0 
255 255 0 255 255 0 255 255 0 255 255 0 255 255 0 
0 0 0 0 0 0 32 32 0 229 229 0 255 255 0 
235 235 2 19 19 28 0 0 33 127 127 17 255 255 0 
0 0 35 0 0 0 0 0 0 0 0 0 0 0 0 
0 0 0 0 0 0 0 0 0 0 0 0 0 0 0 
0 0 0 0 0 0 0 0 0 0 0 0 0 0 0 
22 21 2 87 78 10 152 139 0 186 82 7 168 37 9 
144 16 20 48 0 0 0 0 0 0 0 0 0 0 0 
21 10 11 107 82 0 235 175 0 239 214 0 255 255 0 
255 255 0 255 255 0 255 255 0 255 255 0 255 255 0 
255 255 0 255 255 0 255 255 0 255 255 0 255 255 0 
190 190 0 159 159 0 87 87 3 153 153 10 159 159 0 
255 255 0 213 213 5 150 150 6 55 55 3 164 164 0 
148 148 15 28 28 42 0 0 0 0 0 0 0 0 0 
0 0 0 0 0 0 0 0 0 0 0 0 0 0 0 
0 0 0 0 0 0 0 0 0 0 0 0 0 0 0 
0 0 0 0 0 0 56 0 0 143 16 21 146 22 28 
126 61 62 50 0 0 0 0 0 0 0 0 0 0 0 
0 0 0 75 0 0 161 0 0 206 124 0 255 255 0 
255 255 0 255 255 0 255 255 0 255 255 0 255 255 0 
255 255 0 255 255 0 255 255 0 255 255 0 255 255 0 
255 255 0 255 255 0 255 255 0 67 67 26 0 0 3 
255 255 0 255 255 0 255 255 0 120 120 0 0 0 0 
214 214 9 48 48 67 0 0 0 0 0 0 0 0 0 
0 0 0 0 0 0 0 0 0 0 0 0 0 0 0 
0 0 0 0 0 0 0 0 0 0 0 0 0 0 0 
0 0 0 0 0 0 0 0 0 0 35 13 6 56 23 
4 22 0 141 0 0 15 0 0 3 0 0 0 0 0 
40 0 0 181 0 0 158 0 0 158 0 0 205 124 0 
215 149 0 255 255 0 255 255 0 255 255 0 255 255 0 
255 255 0 255 255 0 255 255 0 255 255 0 255 255 0 
255 255 0 255 255 0 255 255 0 255 255 0 255 255 0 
171 171 7 6 6 5 0 0 1 14 14 32 0 0 3 
0 0 0 0 0 0 0 0 0 0 0 0 0 0 0 
0 0 0 0 0 0 0 0 0 0 0 0 0 0 0 
0 0 0 0 0 0 0 0 0 0 0 0 0 0 0 
0 0 0 0 0 0 0 0 0 45 49 45 71 78 73 
0 7 0 147 6 0 177 0 0 30 0 0 0 0 0 
152 2 0 196 72 0 215 150 0 239 213 0 255 255 0 
255 255 0 255 255 0 255 255 0 255 255 0 255 255 0 
255 255 0 255 255 0 255 255 0 255 255 0 255 255 0 
255 255 0 255 255 0 255 255 0 255 255 0 255 255 0 
255 255 0 255 255 0 206 206 67 233 233 249 24 24 24 
0 0 0 0 0 0 0 0 0 0 0 0 0 0 0 
0 0 0 0 0 0 0 0 0 0 0 0 0 0 0 
0 0 0 0 0 0 0 0 0 0 0 0 0 0 0 
0 0 0 0 0 0 0 0 0 0 0 0 0 0 0 
0 0 0 35 5 0 89 0 0 106 0 0 102 0 0 
62 0 16 156 132 10 255 255 0 255 255 0 255 255 0 
255 255 0 255 255 0 255 255 0 255 255 0 255 255 0 
255 255 0 255 255 0 255 255 0 255 255 0 255 255 0 
255 255 0 255 255 0 255 255 0 255 255 0 255 255 0 
255 255 0 255 255 0 255 255 134 255 255 255 21 21 21 
0 0 0 0 0 0 0 0 0 0 0 0 0 0 0 
0 0 0 0 0 0 0 0 0 0 0 0 0 0 0 
0 0 0 0 0 0 0 0 0 0 0 0 0 0 0 
0 0 0 0 0 0 0 0 0 0 0 0 0 0 0 
0 0 0 0 0 0 32 0 0 157 0 0 199 0 0 
1 0 30 115 133 17 255 255 0 255 255 0 255 255 0 
255 255 0 255 255 0 255 255 0 255 255 0 255 255 0 
255 255 0 255 255 0 255 255 0 255 255 0 255 255 0 
255 255 0 255 255 0 255 255 0 255 255 0 255 255 0 
255 255 0 255 255 0 255 255 116 255 255 255 24 24 24 
0 0 0 0 0 0 0 0 0 0 0 0 0 0 0 
0 0 0 0 0 0 0 0 0 0 0 0 0 0 0 
0 0 0 0 0 0 0 0 0 0 0 0 0 0 0 
0 0 0 0 0 0 0 0 0 0 0 0 0 0 0 
0 0 0 0 0 0 0 0 0 16 14 0 13 24 0 
177 0 0 137 47 7 226 236 4 255 255 0 255 255 0 
255 255 0 255 255 0 255 255 0 255 255 0 255 255 0 
255 255 0 255 255 0 255 255 0 255 255 0 255 255 0 
255 255 0 255 255 0 255 255 0 255 255 0 255 255 0 
255 255 16 255 255 218 255 255 249 120 120 124 0 0 0 
0 0 0 0 0 0 0 0 0 0 0 0 0 0 0 
0 0 0 0 0 0 0 0 0 0 0 0 0 0 0 
0 0 0 0 0 0 0 0 0 0 0 0 0 0 0 
0 0 0 0 0 0 0 0 0 0 0 0 0 0 0 
0 0 0 0 0 0 0 0 0 7 9 11 3 15 18 
86 0 0 112 51 5 232 238 2 255 255 0 255 255 0 
255 255 0 255 255 0 255 255 0 255 255 0 255 255 0 
255 255 0 255 255 0 255 255 0 255 255 0 255 255 0 
255 255 0 255 255 0 255 255 0 255 255 0 255 255 0 
255 255 26 255 255 231 229 229 206 97 97 100 0 0 0 
0 0 0 0 0 0 0 0 0 0 0 0 0 0 0 
0 0 0 0 0 0 0 0 0 0 0 0 0 0 0 
0 0 0 0 0 0 0 0 0 0 0 0 0 0 0 
0 0 0 0 0 0 0 0 0 0 0 0 0 0 0 
0 0 0 0 0 0 0 0 0 19 19 19 31 31 31 
0 0 0 48 54 0 245 245 0 255 255 0 255 255 0 
255 255 0 255 255 0 255 255 0 255 255 0 255 255 0 
255 255 0 255 255 0 255 255 0 255 255 0 255 255 0 
255 255 0 255 255 0 255 255 0 255 255 0 255 255 0 
255 255 196 255 255 255 124 124 126 0 0 0 2 2 2 
0 0 0 0 0 0 0 0 0 0 0 0 0 0 0 
0 0 0 0 0 0 0 0 0 0 0 0 0 0 0 
0 0 0 0 0 0 0 0 0 0 0 0 0 0 0 
0 0 0 0 0 0 0 0 0 0 0 0 0 0 0 
0 0 0 0 0 0 0 0 0 0 0 0 0 0 0 
0 0 0 33 33 28 189 189 47 247 247 0 255 255 0 
255 255 0 255 255 0 255 255 0 255 255 0 255 255 0 
255 255 0 255 255 0 255 255 0 255 255 0 255 255 0 
255 255 0 255 255 0 255 255 0 255 255 0 255 255 2 
234 234 255 103 103 103 55 55 55 0 0 0 0 0 0 
0 0 0 0 0 0 0 0 0 0 0 0 0 0 0 
0 0 0 0 0 0 0 0 0 0 0 0 0 0 0 
0 0 0 0 0 0 0 0 0 0 0 0 0 0 0 
0 0 0 0 0 0 0 0 0 0 0 0 0 0 0 
0 0 0 0 0 0 0 0 0 0 0 0 0 0 0 
0 0 0 0 0 3 0 0 5 135 135 0 255 255 0 
255 255 0 255 255 0 255 255 0 255 255 0 255 255 0 
255 255 0 255 255 0 255 255 0 255 255 0 255 255 0 
255 255 0 255 255 0 255 255 0 255 255 0 255 255 239 
166 166 177 0 0 0 0 0 0 0 0 0 0 0 0 
0 0 0 0 0 0 0 0 0 0 0 0 0 0 0 
0 0 0 0 0 0 0 0 0 0 0 0 0 0 0 
0 0 0 0 0 0 0 0 0 0 0 0 0 0 0 
0 0 0 0 0 0 0 0 0 0 0 0 0 0 0 
0 0 0 0 0 0 0 0 0 0 0 0 0 0 0 
0 0 0 0 0 0 0 0 0 118 113 5 220 220 0 
217 217 0 232 232 0 255 255 0 255 255 0 255 255 0 
255 255 0 255 255 0 255 255 0 255 255 0 255 255 0 
255 255 0 255 255 0 254 255 0 221 222 0 221 221 208 
193 193 171 0 0 0 0 0 0 0 0 0 0 0 0 
0 0 0 0 0 0 0 0 0 0 0 0 0 0 0 
0 0 0 0 0 0 0 0 0 0 0 0 0 0 0 
0 0 0 0 0 0 0 0 0 0 0 0 0 0 0 
0 0 0 0 0 0 0 0 0 0 0 0 0 0 0 
0 0 0 0 0 0 0 0 0 0 0 0 0 0 0 
0 0 0 0 0 0 0 0 0 23 5 18 0 0 2 
0 0 0 27 27 0 156 156 1 177 177 0 252 252 0 
255 255 0 255 255 0 255 255 0 255 255 0 255 255 0 
255 255 0 241 243 0 140 124 20 13 4 11 0 0 0 
171 171 78 0 0 0 0 0 0 0 0 0 0 0 0 
0 0 0 0 0 0 0 0 0 0 0 0 0 0 0 
0 0 0 0 0 0 0 0 0 0 0 0 0 0 0 
0 0 0 0 0 0 0 0 0 0 0 0 0 0 0 
0 0 0 0 0 0 0 0 0 0 0 0 0 0 0 
0 0 0 0 0 0 0 0 0 0 0 0 0 0 0 
0 0 0 0 0 0 0 0 0 0 0 0 0 0 0 
0 0 0 11 11 16 105 105 27 191 191 0 255 255 0 
255 255 0 255 255 0 255 255 0 255 255 0 147 147 0 
81 81 0 40 41 0 47 29 40 44 33 24 0 0 0 
0 0 0 0 0 0 0 0 0 0 0 0 0 0 0 
0 0 0 0 0 0 0 0 0 0 0 0 0 0 0 
0 0 0 0 0 0 0 0 0 0 0 0 0 0 0 
0 0 0 0 0 0 0 0 0 0 0 0 0 0 0 
0 0 0 0 0 0 0 0 0 0 0 0 0 0 0 
0 0 0 0 0 0 0 0 0 0 0 0 0 0 0 
0 0 0 0 0 0 0 0 0 0 0 0 0 0 0 
0 0 0 30 30 20 120 120 33 104 104 0 97 99 0 
97 100 0 97 99 0 97 97 10 77 77 21 172 172 4 
192 192 0 187 187 0 167 168 23 40 41 13 0 0 0 
0 0 0 0 0 0 0 0 0 0 0 0 0 0 0 
0 0 0 0 0 0 0 0 0 0 0 0 0 0 0 
0 0 0 0 0 0 0 0 0 0 0 0 0 0 0 
0 0 0 0 0 0 0 0 0 0 0 0 0 0 0 
0 0 0 0 0 0 0 0 0 0 0 0 0 0 0 
0 0 0 0 0 0 0 0 0 0 0 0 0 0 0 
0 0 0 0 0 0 0 0 0 0 0 0 0 0 0 
0 0 0 42 42 0 60 60 0 85 88 0 69 39 29 
57 22 32 58 35 32 44 46 33 212 212 9 96 96 20 
0 0 15 2 2 11 0 0 0 0 0 0 0 0 0 
0 0 0 0 0 0 0 0 0 0 0 0 0 0 0 
0 0 0 0 0 0 0 0 0 0 0 0 0 0 0 
0 0 0 0 0 0 0 0 0 0 0 0 0 0 0 
0 0 0 0 0 0 0 0 0 0 0 0 0 0 0 
0 0 0 0 0 0 0 0 0 0 0 0 0 0 0 
0 0 0 0 0 0 0 0 0 0 0 0 0 0 0 
0 0 0 0 0 0 0 0 0 0 0 0 0 0 0 
0 0 0 0 0 0 102 102 0 253 254 39 237 231 37 
234 228 33 235 231 24 231 231 0 255 255 86 240 240 40 
218 218 57 233 233 80 110 110 59 0 0 0 0 0 0 
0 0 0 0 0 0 0 0 0 0 0 0 0 0 0 
0 0 0 0 0 0 0 0 0 0 0 0 0 0 0 
0 0 0 0 0 0 0 0 0 0 0 0 0 0 0 
0 0 0 0 0 0 0 0 0 0 0 0 0 0 0 
0 0 0 0 0 0 0 0 0 0 0 0 0 0 0 
0 0 0 0 0 0 0 0 0 0 0 0 0 0 0 
0 0 0 0 0 0 0 0 0 0 0 0 0 0 0 
0 0 0 0 0 0 50 50 0 123 123 18 114 110 18 
112 107 17 112 109 13 110 110 0 133 133 41 117 117 19 
102 102 27 110 110 38 52 52 28 0 0 0 0 0 0 
0 0 0 0 0 0 0 0 0 0 0 0 0 0 0 
0 0 0 0 0 0 0 0 0 0 0 0 0 0 0 
0 0 0 0 0 0 0 0 0 0 0 0 0 0 0 
0 0 0 0 0 0 0 0 0 0 0 0 0 0 0 
0 0 0 0 0 0 0 0 0 0 0 0 0 0 0 
0 0 0 0 0 0 0 0 0 0 0 0 0 0 0 
0 0 0 0 0 0 0 0 0 0 0 0 0 0 0 
0 0 0 0 0 0 0 0 0 0 0 0 0 0 0 
0 0 0 0 0 0 0 0 0 0 0 0 0 0 0 
0 0 0 0 0 0 0 0 0 0 0 0 0 0 0 
0 0 0 0 0 0 0 0 0 0 0 0 0 0 0 
0 0 0 0 0 0 0 0 0 0 0 0 0 0 0 
0 0 0 0 0 0 0 0 0 0 0 0 0 0 0 
0 0 0 0 0 0 0 0 0 0 0 0 0 0 0 
0 0 0 0 0 0 0 0 0 0 0 0 0 0 0 
0 0 0 0 0 0 0 0 0 0 0 0 0 0 0 
0 0 0 0 0 0 0 0 0 0 0 0 0 0 0 
0 0 0 0 0 0 0 0 0 0 0 0 0 0 0 
0 0 0 0 0 0 0 0 0 0 0 0 0 0 0 
0 0 0 0 0 0 0 0 0 0 0 0 0 0 0 
0 0 0 0 0 0 0 0 0 0 0 0 0 0 0 
0 0 0 0 0 0 0 0 0 0 0 0 0 0 0 
