P3
# Created by IrfanView
36 29
255
0 0 0 0 0 0 0 0 0 0 0 0 0 0 0 
0 0 0 0 0 0 0 0 0 0 0 0 0 0 0 
0 0 0 0 0 0 0 0 0 0 0 0 0 0 0 
0 0 0 0 0 0 0 0 0 0 0 0 0 0 0 
0 0 0 0 0 0 0 0 0 0 0 0 0 0 0 
0 0 0 0 0 0 0 0 0 0 0 0 0 0 0 
0 0 0 0 0 0 0 0 0 0 0 0 0 0 0 
0 0 0 0 0 0 0 0 0 0 0 0 0 0 0 
0 0 0 0 0 0 0 0 0 0 0 0 0 0 0 
0 0 0 0 0 0 0 0 0 0 0 0 0 0 0 
0 0 0 0 0 0 0 0 0 5 5 0 7 10 3 
9 11 8 9 9 2 10 10 0 9 9 0 0 0 0 
3 3 0 0 0 0 0 0 0 0 0 0 0 0 0 
0 0 0 0 0 0 0 0 0 0 0 0 0 0 0 
0 0 0 0 0 0 0 0 0 0 0 0 0 0 0 
0 0 0 0 0 0 0 0 0 0 0 0 0 0 0 
6 6 5 23 23 1 25 25 0 24 24 0 21 21 0 
0 0 1 4 4 7 24 24 0 36 37 5 97 98 4 
128 133 6 129 136 16 142 141 5 139 139 0 109 109 1 
0 0 0 27 27 0 0 0 0 0 0 0 0 0 0 
0 0 0 0 0 0 0 0 0 0 0 0 0 0 0 
0 0 0 0 0 0 0 0 0 0 0 0 0 0 0 
0 0 0 0 0 0 0 0 0 0 0 0 0 0 0 
8 17 0 76 77 8 179 179 1 188 188 0 187 187 0 
166 166 0 61 61 2 35 35 9 89 89 0 160 160 2 
228 229 2 249 249 0 248 248 1 247 248 3 157 161 6 
75 75 6 0 0 0 12 12 0 0 0 0 0 0 0 
0 0 0 0 0 0 0 0 0 0 0 0 0 0 0 
0 0 0 0 0 0 0 0 0 0 0 0 0 0 0 
0 0 0 0 0 0 0 0 0 0 0 2 7 9 12 
59 66 6 156 173 0 250 250 0 254 254 0 254 254 0 
254 254 0 254 254 0 249 249 0 183 183 0 101 101 0 
152 152 3 169 169 2 145 145 5 171 171 12 115 119 10 
11 23 14 1 1 1 27 27 0 0 0 0 4 2 2 
2 1 1 0 0 0 0 0 0 0 0 0 0 0 0 
0 0 0 0 0 0 0 0 0 0 0 0 0 0 0 
0 0 0 0 0 0 0 0 0 0 0 0 14 15 2 
108 111 10 226 227 5 231 230 17 139 139 16 239 239 2 
255 255 0 255 255 0 255 255 0 255 255 0 255 255 0 
255 255 0 244 244 2 197 197 2 168 168 4 185 185 10 
157 159 5 160 163 0 160 160 0 198 199 0 17 17 0 
3 2 2 2 1 1 0 0 0 0 0 0 0 0 0 
0 0 0 0 0 0 0 0 0 0 0 0 0 0 0 
0 0 0 0 0 0 0 0 0 0 0 2 0 0 4 
84 83 6 220 219 0 215 215 4 123 123 83 77 77 65 
233 233 5 255 255 0 255 255 0 255 255 0 255 255 0 
255 255 0 255 255 0 255 255 0 255 255 0 255 255 0 
255 255 0 255 255 0 255 255 0 223 224 4 76 81 7 
6 6 0 0 0 0 0 0 0 0 0 0 0 0 0 
0 0 0 0 0 0 0 0 0 0 0 0 0 0 0 
0 0 0 0 0 0 0 0 0 1 1 0 32 31 3 
110 109 4 194 195 5 252 252 0 164 164 4 23 23 31 
63 63 15 234 234 1 255 255 0 255 255 0 255 255 0 
255 255 0 255 255 0 255 255 0 255 255 0 255 255 0 
255 255 0 255 255 0 255 255 0 210 212 6 83 86 8 
0 2 5 0 0 0 0 0 0 0 0 0 0 0 0 
0 0 0 0 0 0 0 0 0 0 0 0 0 0 0 
34 34 0 19 19 0 0 0 0 0 0 0 1 1 0 
79 78 0 248 248 0 253 253 0 255 255 0 138 145 7 
13 30 4 202 209 0 254 254 0 255 255 0 255 255 0 
255 255 0 255 255 0 255 255 0 255 255 0 255 255 0 
255 255 0 255 255 0 255 255 0 255 255 0 134 134 2 
4 4 1 0 0 0 0 0 0 0 0 0 0 0 0 
0 0 0 0 0 0 0 0 0 0 0 3 0 0 2 
48 48 0 203 203 0 57 57 8 0 0 0 0 0 0 
1 1 0 79 79 1 255 255 0 255 255 0 255 250 0 
255 188 0 255 80 0 255 176 0 255 251 0 255 255 0 
255 255 0 255 255 0 255 255 0 255 255 0 255 255 0 
255 255 0 255 255 0 255 255 0 255 255 0 255 255 0 
255 255 0 71 71 1 0 0 0 0 0 0 0 0 0 
0 0 0 0 0 1 18 18 0 82 82 0 215 215 0 
255 255 0 246 246 1 118 118 10 7 7 4 0 0 0 
0 0 0 1 1 0 51 51 1 185 185 5 247 247 2 
255 217 0 255 62 0 255 0 0 255 51 0 255 230 0 
255 255 0 255 255 0 255 255 0 255 255 0 255 255 0 
255 255 0 255 255 0 255 255 0 255 255 0 255 255 0 
255 255 0 211 211 6 47 47 11 0 0 0 0 0 0 
0 0 1 21 20 2 105 105 4 168 168 0 247 247 0 
255 255 0 223 222 0 192 192 2 81 82 3 3 3 1 
0 0 0 0 0 0 0 0 0 0 0 1 30 30 9 
159 161 10 249 212 1 255 55 0 255 0 0 255 52 0 
255 231 0 255 255 0 255 255 0 255 255 0 255 255 0 
255 255 0 255 255 0 255 255 0 255 255 0 255 255 0 
255 255 0 255 255 0 143 143 4 9 8 7 0 0 0 
0 0 0 1 0 2 66 66 1 255 255 0 255 255 0 
255 255 1 209 209 3 70 70 1 37 38 2 3 4 1 
0 0 0 0 0 0 0 0 0 0 0 0 0 0 0 
5 5 1 119 119 5 239 236 1 255 151 0 255 48 0 
255 121 0 255 242 0 255 255 0 255 255 0 255 255 0 
255 255 0 255 255 0 255 255 0 255 255 0 255 254 0 
253 249 0 242 216 0 225 199 0 119 118 5 5 6 3 
0 0 0 0 0 0 0 0 0 44 55 0 255 255 0 
251 251 0 194 194 0 62 62 0 1 1 0 0 0 0 
0 0 0 0 0 0 0 0 0 0 0 0 0 0 0 
0 0 0 0 0 0 19 19 0 144 145 2 242 243 0 
255 255 0 255 255 0 255 255 0 255 255 0 255 255 0 
255 255 0 255 255 0 255 255 0 254 253 0 246 230 0 
223 170 0 194 104 0 175 25 0 63 1 0 0 0 0 
0 0 0 0 0 0 0 0 0 0 0 0 34 33 2 
255 255 0 225 225 0 68 68 1 0 0 0 0 0 0 
0 0 0 0 0 0 0 0 0 0 0 0 0 0 0 
0 0 0 0 0 0 0 0 0 3 3 2 75 73 6 
217 216 2 255 255 0 255 255 0 255 255 0 255 255 0 
255 255 0 255 255 0 255 255 0 253 251 0 233 196 0 
190 86 0 170 39 0 175 56 0 193 66 0 51 22 0 
0 0 0 0 0 0 0 0 0 2 0 2 5 2 3 
49 44 4 255 255 0 222 222 0 62 62 0 0 0 0 
0 0 0 0 0 0 0 0 0 0 0 0 0 0 0 
0 0 0 0 0 0 0 0 0 0 0 1 35 35 2 
171 169 2 245 244 0 255 255 0 255 255 0 255 255 0 
255 255 0 255 255 0 255 255 0 255 255 0 252 247 0 
220 164 0 200 112 0 211 142 0 237 207 0 248 224 0 
67 62 7 0 0 1 0 0 0 0 0 0 32 12 3 
91 92 6 159 156 1 255 255 0 239 239 0 128 129 1 
21 22 1 0 0 0 0 0 0 0 0 0 0 0 0 
0 0 0 0 0 0 0 0 0 0 0 3 80 80 2 
154 154 7 114 114 15 203 203 4 255 255 0 219 219 0 
118 118 1 219 219 0 255 255 0 255 255 0 255 255 0 
255 254 0 251 246 0 251 244 0 252 248 0 255 254 0 
255 255 0 166 169 4 15 15 1 0 0 0 0 0 0 
56 21 0 177 97 1 244 227 0 255 255 0 175 173 2 
87 81 8 25 21 8 0 0 0 0 0 0 0 0 0 
0 0 0 0 0 0 0 0 0 3 3 2 100 100 20 
219 219 0 74 74 1 142 142 4 238 238 1 215 215 1 
142 142 11 195 195 2 247 247 0 255 255 0 255 255 0 
255 255 0 255 255 0 255 255 0 254 251 0 252 248 0 
251 242 0 236 209 0 198 185 0 27 26 0 0 0 0 
0 0 0 39 2 0 160 5 8 158 40 4 33 35 8 
81 38 41 26 10 16 0 0 1 0 0 0 0 0 0 
0 0 0 0 0 0 0 0 0 0 0 0 4 4 3 
69 69 28 81 81 21 52 52 0 155 155 2 151 151 4 
123 123 5 185 185 7 252 252 1 255 255 0 255 255 0 
255 255 0 255 255 0 255 255 0 255 255 0 244 224 0 
223 170 0 192 98 0 157 15 0 150 7 0 57 1 0 
2 1 1 0 0 0 81 5 1 132 17 14 95 13 10 
14 17 25 1 1 1 2 1 1 0 0 0 0 0 0 
0 0 0 0 0 0 0 0 0 0 0 0 0 0 0 
0 0 0 11 11 12 78 78 85 77 77 77 108 108 29 
173 173 5 251 251 0 255 255 0 255 255 0 255 255 0 
255 255 0 255 255 0 255 255 0 255 255 0 255 255 0 
252 247 0 238 209 0 202 128 0 161 16 0 165 4 0 
94 7 0 4 14 10 80 0 0 164 1 0 79 36 22 
92 100 89 0 0 1 0 0 0 0 0 0 0 0 0 
0 0 0 0 0 0 0 0 0 0 0 0 0 0 0 
0 0 0 0 0 0 2 2 2 29 29 28 175 175 172 
242 242 120 254 254 11 255 255 0 255 255 0 255 255 0 
255 255 0 255 255 0 255 255 0 255 255 0 255 255 0 
255 255 0 255 255 0 255 255 0 251 246 0 240 215 0 
203 178 5 106 40 11 138 4 3 64 5 7 83 76 74 
14 9 7 26 27 27 0 0 0 0 0 0 0 0 0 
0 0 0 0 0 0 0 0 0 0 0 0 0 0 0 
0 0 0 0 0 0 0 0 0 0 0 0 1 1 0 
96 96 92 227 227 203 255 255 60 255 255 0 255 255 0 
255 255 0 255 255 0 255 255 0 255 255 0 255 255 0 
255 255 0 255 255 0 255 255 0 255 255 0 255 255 0 
255 255 0 100 82 15 120 2 4 42 19 3 70 76 77 
0 0 0 0 0 0 0 0 0 0 0 0 0 0 0 
0 0 0 0 0 0 0 0 0 0 0 0 0 0 0 
0 0 0 0 0 0 0 0 0 0 0 0 0 0 0 
0 0 0 45 45 48 183 183 177 252 252 127 255 255 2 
255 255 0 255 255 0 255 255 0 255 255 0 255 255 0 
255 255 0 255 255 0 255 255 0 255 255 0 255 255 0 
255 255 0 255 255 0 86 79 9 28 13 10 14 23 21 
0 0 0 0 0 0 0 0 0 0 0 0 0 0 0 
0 0 0 0 0 0 0 0 0 0 0 0 0 0 0 
0 0 0 0 0 0 0 0 0 0 0 0 0 0 0 
0 0 0 0 0 0 5 5 5 80 80 86 202 202 170 
255 255 78 255 255 10 255 255 0 255 255 0 255 255 0 
255 255 0 255 255 0 255 255 0 255 255 0 255 255 0 
255 255 0 236 237 0 216 216 18 74 75 22 19 20 25 
1 1 2 0 0 0 0 0 0 0 0 0 0 0 0 
0 0 0 0 0 0 0 0 0 0 0 0 0 0 0 
0 0 0 0 0 0 0 0 0 0 0 0 0 0 0 
0 0 0 0 0 0 0 0 0 0 0 0 9 9 9 
94 94 83 190 189 158 181 180 43 247 248 1 255 255 0 
255 255 0 255 255 0 255 255 0 255 255 0 255 255 0 
247 248 0 198 200 0 123 121 2 56 53 38 15 15 14 
5 5 6 0 0 0 0 0 0 0 0 0 0 0 0 
0 0 0 0 0 0 0 0 0 0 0 0 0 0 0 
0 0 0 0 0 0 0 0 0 0 0 0 0 0 0 
0 0 0 0 0 0 0 0 0 0 0 0 0 0 0 
0 0 0 25 23 11 65 43 37 82 56 37 230 228 5 
251 251 0 255 255 0 255 255 0 255 255 0 240 240 0 
125 125 0 109 106 11 103 70 37 20 10 10 0 0 0 
0 0 0 0 0 0 0 0 0 0 0 0 0 0 0 
0 0 0 0 0 0 0 0 0 0 0 0 0 0 0 
0 0 0 0 0 0 0 0 0 0 0 0 0 0 0 
0 0 0 0 0 0 0 0 0 0 0 0 0 0 0 
0 0 0 0 0 0 0 0 0 7 1 1 24 19 10 
72 72 2 139 139 1 213 213 4 215 215 4 216 216 0 
217 217 0 154 154 0 13 12 3 17 7 12 5 2 3 
0 0 0 0 0 0 0 0 0 0 0 0 0 0 0 
0 0 0 0 0 0 0 0 0 0 0 0 0 0 0 
0 0 0 0 0 0 0 0 0 0 0 0 0 0 0 
0 0 0 0 0 0 0 0 0 0 0 0 0 0 0 
0 0 0 0 0 0 0 0 0 0 0 0 0 0 0 
24 24 14 87 87 3 158 158 17 135 135 25 142 143 10 
141 137 22 147 145 26 98 98 10 4 4 0 0 0 0 
0 0 0 0 0 0 0 0 0 0 0 0 0 0 0 
0 0 0 0 0 0 0 0 0 0 0 0 0 0 0 
0 0 0 0 0 0 0 0 0 0 0 0 0 0 0 
0 0 0 0 0 0 0 0 0 0 0 0 0 0 0 
0 0 0 0 0 0 0 0 0 0 0 0 0 0 0 
0 0 0 1 1 1 3 3 0 32 32 8 40 40 8 
42 42 2 41 39 10 43 42 12 21 21 5 0 0 0 
0 0 0 0 0 0 0 0 0 0 0 0 0 0 0 
0 0 0 0 0 0 0 0 0 0 0 0 0 0 0 
0 0 0 0 0 0 0 0 0 0 0 0 0 0 0 
0 0 0 0 0 0 0 0 0 0 0 0 