P3
# Created by IrfanView
40 30
255
0 0 0 0 0 0 0 0 0 0 0 0 0 0 0 
0 0 0 0 0 0 0 0 0 0 0 0 0 0 0 
0 0 0 0 0 0 0 0 0 0 0 0 0 0 0 
0 0 0 0 0 0 0 0 0 0 0 0 0 0 0 
0 0 0 0 0 0 0 0 0 0 0 0 0 0 0 
0 0 0 0 0 0 0 0 0 0 0 0 0 0 0 
0 0 0 0 0 0 0 0 0 0 0 0 0 0 0 
0 0 0 0 0 0 0 0 0 0 0 0 0 0 0 
0 0 0 0 0 0 0 0 0 0 0 0 0 0 0 
0 0 0 0 0 0 0 0 0 0 0 0 0 0 0 
0 0 0 0 0 0 0 0 0 0 0 0 0 0 0 
0 0 0 0 0 0 0 0 0 0 0 0 0 0 0 
0 0 0 0 0 0 0 0 0 0 0 0 0 0 0 
0 0 0 0 0 0 0 0 0 0 0 0 0 0 0 
0 0 0 0 0 0 0 0 0 0 0 0 0 0 0 
0 0 0 0 0 0 0 0 0 0 0 0 0 0 0 
0 0 0 0 0 0 0 0 0 0 0 0 0 0 0 
0 0 0 0 0 0 0 0 0 0 0 0 0 0 0 
0 0 0 0 0 0 10 10 1 73 73 2 93 93 0 
81 81 2 53 53 7 2 2 0 0 0 0 0 0 0 
0 0 0 0 0 0 0 0 0 0 0 0 0 0 0 
0 0 0 0 0 0 0 0 0 0 0 0 0 0 0 
0 0 0 0 0 0 0 0 0 0 0 0 0 0 0 
0 0 0 0 0 0 0 0 0 0 0 0 0 0 0 
0 0 0 0 0 0 0 0 0 0 0 0 0 0 0 
0 0 0 0 0 0 0 0 0 0 0 0 0 0 0 
0 0 0 0 0 0 7 7 1 64 64 1 202 202 0 
231 231 1 179 179 6 21 21 3 0 0 0 0 0 0 
0 0 0 0 0 0 0 0 0 0 0 0 0 0 0 
0 0 0 0 0 0 0 0 0 0 0 0 0 0 0 
0 0 0 0 0 0 0 0 0 0 0 0 0 0 0 
0 0 0 0 0 0 0 0 0 0 0 0 0 0 0 
0 0 0 0 0 0 0 0 0 0 0 0 0 0 0 
0 0 0 0 0 0 0 0 0 0 0 0 0 0 0 
0 0 0 0 0 0 0 0 0 2 4 7 187 194 8 
255 255 0 241 242 1 107 111 11 3 5 4 0 0 0 
0 0 0 0 0 0 0 0 0 0 0 0 0 0 0 
0 0 0 0 0 0 0 0 0 0 0 0 0 0 0 
0 0 0 0 0 0 0 0 0 0 0 0 0 0 0 
0 0 0 0 0 0 0 0 0 0 0 0 0 0 0 
0 0 0 0 0 0 0 0 0 0 0 0 0 0 0 
0 0 0 0 0 0 0 0 0 0 0 0 0 0 0 
0 0 0 0 0 0 0 0 0 0 0 1 66 67 2 
227 227 1 255 255 0 202 202 0 109 109 0 33 33 0 
25 25 1 1 1 1 3 3 0 89 89 0 25 25 5 
0 0 0 0 0 0 0 0 0 0 0 0 0 0 0 
0 0 0 0 0 0 0 0 0 0 0 0 0 0 0 
0 0 0 0 0 0 0 0 0 0 0 0 0 0 0 
0 0 0 0 0 0 0 0 0 0 0 0 0 0 0 
0 0 0 0 0 0 0 0 0 0 0 0 0 0 0 
0 0 0 0 0 0 0 0 0 0 0 0 0 0 5 
62 62 5 252 252 0 255 255 0 255 255 0 224 224 2 
192 192 4 102 102 6 111 111 0 254 254 0 167 168 2 
8 9 0 0 0 0 0 0 0 0 0 0 0 0 0 
0 0 0 0 0 0 0 0 0 0 0 0 0 0 0 
0 0 0 0 0 0 0 0 0 0 0 0 0 0 0 
0 0 0 0 0 0 0 0 0 0 0 0 0 0 0 
0 0 0 0 0 0 0 0 0 0 0 0 0 0 0 
0 0 0 0 0 0 0 0 0 0 0 0 0 0 0 
30 30 0 248 248 0 255 255 0 255 255 0 255 255 0 
252 252 0 245 245 1 246 246 0 255 255 0 190 191 0 
21 23 0 0 0 0 0 0 0 0 0 0 0 0 0 
0 0 0 0 0 0 0 0 0 0 0 0 0 0 0 
0 0 0 0 0 0 0 0 0 0 0 0 0 0 0 
0 0 0 0 0 0 0 0 0 0 0 0 0 0 0 
0 0 0 0 0 0 0 0 0 0 0 0 0 0 0 
0 0 0 0 0 0 0 0 0 0 0 0 0 0 0 
4 4 0 44 44 0 138 138 0 241 241 0 175 175 0 
173 173 0 173 173 0 179 179 0 246 247 0 233 207 0 
131 33 0 22 0 0 0 0 0 0 0 0 0 0 0 
0 0 0 0 0 0 0 0 0 0 0 0 0 0 0 
0 0 0 0 0 0 0 0 0 0 0 0 0 0 0 
0 0 0 0 0 0 0 0 0 0 0 0 0 0 0 
0 0 0 0 0 0 0 0 0 5 5 0 2 2 0 
2 2 0 2 2 0 0 0 1 1 1 4 8 8 1 
11 11 0 17 17 3 21 21 0 90 90 0 142 142 0 
145 145 0 103 103 0 19 19 0 53 55 0 131 103 3 
180 43 3 106 5 1 2 6 0 0 0 0 0 0 0 
0 0 0 0 0 0 0 0 0 0 0 0 0 0 0 
0 0 0 0 0 0 0 0 0 0 0 0 0 0 0 
0 0 0 0 0 0 0 0 0 0 0 0 0 0 0 
4 4 0 7 7 0 62 62 0 114 114 0 99 99 0 
99 99 0 101 101 0 73 73 7 58 58 25 86 86 9 
120 119 0 198 202 3 226 226 0 216 216 0 247 247 1 
233 233 2 156 156 3 142 141 0 0 5 7 11 5 7 
85 21 23 127 10 7 70 3 0 30 5 0 0 2 0 
0 0 0 0 0 0 0 0 0 0 0 0 0 0 0 
0 0 0 0 0 0 0 0 0 0 0 0 0 0 0 
0 0 0 0 0 0 0 0 0 0 0 0 11 11 3 
95 95 1 148 148 0 225 225 0 250 250 0 255 255 0 
255 255 0 255 255 0 236 236 0 210 210 0 166 166 0 
157 157 3 125 125 6 181 181 1 241 241 1 124 124 14 
135 135 12 193 193 4 162 160 0 0 8 16 10 14 14 
12 11 10 35 7 4 134 0 0 131 6 0 36 4 0 
0 0 0 0 0 0 0 0 0 0 0 0 0 0 0 
0 0 0 0 0 0 0 0 0 0 0 0 0 0 0 
0 0 0 0 0 0 0 0 0 0 0 0 166 166 5 
236 236 0 253 253 0 253 253 0 255 255 0 255 255 0 
255 255 0 255 255 0 255 255 0 255 255 0 250 250 0 
239 239 1 208 208 2 198 198 4 181 181 9 153 153 4 
160 160 3 178 178 0 206 205 0 192 193 2 3 6 4 
0 0 1 0 1 1 21 9 9 83 0 0 121 6 0 
21 2 0 0 0 0 0 0 0 0 0 0 0 0 0 
0 0 0 0 0 0 0 0 0 0 0 0 0 0 0 
0 0 0 1 1 0 4 4 0 203 203 0 247 247 0 
171 171 47 122 122 92 78 78 109 178 178 0 255 255 0 
255 255 0 255 255 0 255 255 0 255 255 0 255 255 0 
255 255 0 255 255 0 255 255 0 255 255 0 255 255 0 
255 255 0 252 252 0 168 172 0 125 0 0 195 46 0 
203 156 0 147 35 0 173 0 0 222 138 1 163 150 12 
71 18 11 8 8 6 67 67 14 243 243 0 165 165 0 
154 154 0 72 72 0 2 2 0 0 0 0 0 0 0 
2 2 0 54 54 0 167 167 0 255 255 0 232 232 1 
82 82 2 0 0 2 53 53 0 220 220 0 255 255 0 
255 255 0 255 255 0 255 255 0 255 255 0 255 255 0 
255 255 0 255 255 0 255 255 0 255 255 0 255 255 0 
244 244 1 150 151 11 201 200 6 157 0 0 197 100 0 
235 195 0 170 35 0 161 17 0 245 228 0 255 255 0 
255 255 0 255 255 0 220 220 0 113 113 0 220 220 0 
255 255 0 234 234 1 107 107 10 11 11 4 0 0 0 
0 0 1 91 91 3 237 237 1 255 255 0 241 242 2 
151 158 6 103 113 6 228 228 0 255 255 0 255 255 0 
255 255 0 255 255 0 255 255 0 255 255 0 255 255 0 
255 255 0 255 255 0 255 255 0 255 255 0 255 255 0 
231 231 1 146 147 4 223 223 1 165 32 0 238 211 0 
250 242 0 191 84 0 207 129 0 253 249 0 255 255 0 
255 255 0 255 255 0 255 255 0 255 255 0 255 255 0 
255 255 0 255 255 0 226 226 0 92 92 0 0 0 0 
0 0 2 89 89 5 236 236 1 255 255 0 254 248 0 
246 175 1 242 123 1 255 191 0 255 255 0 255 255 0 
255 255 0 255 255 0 255 255 0 255 255 0 255 255 0 
255 255 0 255 255 0 255 255 0 255 255 0 255 255 0 
250 250 0 156 157 0 188 189 0 236 204 0 255 255 0 
255 255 0 214 146 0 249 238 0 255 255 0 255 255 0 
255 255 0 255 255 0 255 255 0 255 255 0 255 255 0 
255 255 0 197 197 0 235 235 0 207 207 0 0 0 0 
0 0 0 95 92 3 239 237 1 255 255 0 255 172 0 
255 9 0 255 3 0 255 6 0 255 199 0 255 255 0 
255 255 0 255 255 0 255 255 0 255 255 0 255 255 0 
255 255 0 255 255 0 255 255 0 255 255 0 255 255 0 
255 255 0 160 160 0 181 181 0 255 255 0 255 255 0 
255 255 0 250 242 0 255 255 0 255 255 0 255 255 0 
255 255 0 255 255 0 255 255 0 255 255 0 255 255 0 
255 255 0 210 210 0 71 63 6 25 19 6 0 0 0 
0 0 0 0 0 0 19 19 10 213 217 6 255 191 0 
255 32 0 255 13 0 255 30 0 255 211 0 255 255 0 
255 255 0 255 255 0 255 255 0 255 255 0 255 255 0 
255 255 0 255 255 0 255 255 0 255 255 0 254 254 0 
226 226 0 143 143 0 228 228 0 255 255 0 255 255 0 
255 255 0 255 255 0 255 255 0 255 255 0 255 255 0 
255 255 0 255 255 0 255 255 0 255 255 0 255 255 0 
255 255 0 215 214 2 49 45 8 1 0 2 0 0 0 
0 0 0 0 0 0 55 55 5 215 215 3 255 247 0 
255 185 0 255 147 0 255 196 0 255 255 0 255 255 0 
255 255 0 255 255 0 255 255 0 255 255 0 255 255 0 
255 255 0 255 255 0 255 255 0 255 255 0 250 250 0 
231 231 0 194 194 0 245 245 0 255 255 0 255 255 0 
255 255 0 255 255 0 255 255 0 255 255 0 255 255 0 
255 255 0 255 255 0 255 255 0 255 255 0 255 255 0 
255 255 0 215 214 2 50 47 10 1 0 3 0 0 0 
0 0 0 0 0 0 0 0 1 55 55 9 203 203 2 
255 255 0 255 255 0 255 255 0 255 255 0 255 255 0 
255 255 0 255 255 0 255 255 0 255 255 0 255 255 0 
255 255 0 255 255 0 255 255 0 255 255 0 254 254 0 
253 253 0 253 253 0 255 255 0 255 255 0 255 255 0 
255 255 0 255 255 0 255 255 0 255 255 0 255 255 0 
255 255 0 255 255 0 255 255 0 255 255 0 255 255 0 
255 255 0 193 193 3 36 34 8 1 0 1 0 0 0 
0 0 0 0 0 0 0 0 0 0 0 1 71 71 0 
217 218 0 239 240 0 255 255 0 255 255 0 255 255 0 
255 255 0 255 255 0 255 255 0 255 255 0 255 255 0 
255 255 0 255 255 0 255 255 0 255 255 0 255 255 0 
255 255 0 255 255 0 255 255 0 255 255 0 255 255 0 
255 255 0 255 255 0 255 255 0 255 255 0 255 255 0 
255 255 0 255 255 0 255 255 0 255 255 0 255 255 0 
252 252 0 96 96 7 3 3 1 0 0 0 0 0 0 
0 0 0 0 0 0 0 0 0 0 0 0 0 0 0 
44 40 0 87 80 0 255 255 0 255 255 0 255 255 0 
255 255 0 255 255 0 255 255 0 255 255 0 255 255 0 
255 255 0 255 255 0 255 255 0 255 255 0 255 255 0 
255 255 0 255 255 0 255 255 0 255 255 0 255 255 0 
255 255 0 255 255 0 255 255 0 255 255 0 255 255 0 
255 255 0 255 255 0 255 255 0 255 255 0 255 255 0 
203 203 0 0 0 5 0 0 0 0 0 0 0 0 0 
0 0 0 0 0 0 0 0 0 0 0 0 0 0 0 
28 25 0 55 51 0 162 162 0 200 200 0 251 251 0 
255 255 0 255 255 0 255 255 0 255 255 0 251 251 0 
195 195 0 213 213 0 236 236 0 252 252 0 255 255 0 
255 255 0 255 255 0 255 255 0 255 255 0 255 255 0 
255 255 0 255 255 0 255 255 0 255 255 0 255 255 0 
255 255 0 255 255 0 246 246 0 217 217 0 185 185 0 
132 132 0 0 0 3 0 0 0 0 0 0 0 0 0 
0 0 0 0 0 0 0 0 0 0 0 0 0 0 0 
0 0 0 0 0 0 5 5 0 115 115 0 197 197 0 
254 254 0 255 255 0 253 253 0 232 232 0 157 157 0 
150 150 0 198 198 0 234 234 0 252 252 0 255 255 0 
255 255 0 255 255 0 255 255 0 255 255 0 255 255 0 
255 255 0 255 255 0 255 255 0 255 255 0 255 255 0 
255 255 0 248 248 0 138 138 5 61 61 0 25 25 0 
3 3 0 0 0 0 0 0 0 0 0 0 0 0 0 
0 0 0 0 0 0 0 0 0 0 0 0 0 0 0 
34 34 7 67 67 13 214 214 0 233 233 0 167 167 0 
219 219 0 247 247 0 170 170 0 86 86 0 197 197 0 
244 244 0 252 252 0 255 255 0 255 255 0 255 255 0 
255 255 0 255 255 0 255 255 0 255 255 0 255 255 0 
255 255 0 255 255 0 255 255 0 255 255 0 250 250 0 
187 187 5 61 61 32 20 20 11 0 0 0 0 0 0 
0 0 0 0 0 0 0 0 0 0 0 0 0 0 0 
0 0 0 0 0 0 0 0 0 0 0 0 0 0 0 
70 70 0 140 140 0 238 238 1 146 146 6 112 112 9 
92 92 0 94 94 0 30 30 0 137 137 0 152 152 0 
188 188 0 159 159 0 127 127 0 116 116 0 133 133 0 
140 140 0 201 201 0 246 246 0 246 246 0 255 255 0 
251 251 0 250 250 0 237 237 0 206 206 0 77 77 0 
7 7 0 0 0 0 0 0 0 0 0 0 0 0 0 
0 0 0 0 0 0 0 0 0 0 0 0 0 0 0 
0 0 0 0 0 0 0 0 0 0 0 0 0 0 0 
0 0 0 0 0 0 0 0 6 45 45 29 65 65 32 
81 81 0 148 148 0 116 116 0 101 101 0 23 23 0 
0 0 0 0 0 0 0 0 0 87 87 0 114 114 0 
111 111 0 100 100 0 103 103 0 93 93 0 202 202 1 
152 152 2 122 122 1 27 27 0 0 0 0 0 0 0 
0 0 0 0 0 0 0 0 0 0 0 0 0 0 0 
0 0 0 0 0 0 0 0 0 0 0 0 0 0 0 
0 0 0 0 0 0 0 0 0 0 0 0 0 0 0 
0 0 0 0 0 0 0 0 0 11 11 1 45 43 4 
56 56 2 70 70 0 19 19 0 18 18 0 0 0 0 
0 0 0 0 0 0 0 0 0 27 27 0 4 4 0 
10 10 0 30 30 0 12 12 0 4 4 0 38 38 1 
15 15 4 0 0 1 0 0 0 0 0 0 0 0 0 
0 0 0 0 0 0 0 0 0 0 0 0 0 0 0 
0 0 0 0 0 0 0 0 0 0 0 0 0 0 0 
0 0 0 0 0 0 0 0 0 0 0 0 0 0 0 
0 0 0 0 0 0 0 0 0 5 5 0 16 15 2 
3 3 1 0 0 0 0 0 0 0 0 0 0 0 0 
0 0 0 0 0 0 0 0 0 0 0 0 0 0 0 
0 0 0 0 0 0 0 0 0 0 0 0 0 0 0 
0 0 0 0 0 0 0 0 0 0 0 0 0 0 0 
0 0 0 0 0 0 0 0 0 0 0 0 0 0 0 
0 0 0 0 0 0 0 0 0 0 0 0 0 0 0 
