P3
# Created by IrfanView
50 40
255
0 0 0 1 1 0 0 0 2 1 1 3 0 1 0 
0 2 1 0 0 0 2 0 1 3 0 0 4 0 0 
3 0 0 3 0 0 2 0 3 4 2 5 0 0 4 
0 0 2 0 1 0 0 2 0 1 0 0 5 1 0 
3 0 0 1 0 0 0 5 1 0 2 0 0 3 3 
0 1 2 1 0 0 5 1 2 3 0 0 1 0 2 
2 3 7 0 2 5 0 0 4 0 1 2 0 1 6 
0 3 6 0 0 0 0 1 0 0 3 0 0 4 0 
0 2 0 0 1 2 6 1 7 3 0 5 0 1 5 
0 1 2 1 2 0 0 1 0 0 0 0 0 0 0 
1 1 0 0 0 0 6 4 7 1 0 2 0 0 0 
2 4 3 0 2 1 0 0 0 6 5 3 3 0 0 
4 0 1 2 0 1 0 0 2 0 0 2 1 0 5 
0 0 2 0 2 0 2 4 0 3 1 0 6 1 0 
6 2 0 11 7 0 3 3 0 20 23 0 17 20 0 
5 5 0 6 2 0 8 3 0 10 4 0 6 4 0 
0 0 0 0 0 2 0 0 2 0 0 2 0 1 2 
0 1 2 2 1 0 1 0 0 1 3 0 0 5 0 
0 2 1 0 0 2 1 0 2 1 0 4 0 1 5 
3 4 6 1 0 0 3 2 0 0 0 0 0 0 0 
0 1 0 5 3 6 4 0 4 4 0 4 7 2 6 
0 1 0 0 2 0 0 2 0 0 1 0 0 0 0 
2 2 0 0 0 0 0 0 2 0 1 2 3 4 8 
0 1 0 0 1 0 3 2 0 40 36 0 125 120 64 
193 187 113 252 245 164 255 248 168 255 249 171 252 246 170 
255 251 175 255 252 177 203 196 126 106 100 48 7 3 0 
5 6 0 1 2 0 2 0 3 2 2 4 0 2 0 
0 1 0 4 0 0 4 0 0 4 0 1 1 0 2 
3 1 6 0 0 4 0 0 0 4 6 3 0 1 2 
0 0 2 7 1 3 7 0 0 1 0 0 0 0 0 
0 1 0 2 2 4 4 0 4 10 0 8 3 0 0 
0 0 0 0 6 2 0 3 0 3 4 6 0 0 0 
2 3 0 1 3 0 0 4 0 1 3 0 1 1 0 
6 3 0 23 22 0 207 205 157 255 250 184 253 247 163 
255 251 150 255 251 142 255 247 140 252 244 137 255 247 142 
253 244 139 251 242 137 255 252 154 255 252 172 255 250 188 
114 113 69 4 3 0 4 2 0 3 2 0 2 6 0 
3 4 0 4 0 0 9 1 0 4 0 0 4 0 5 
1 0 5 5 4 9 1 1 0 0 1 0 1 5 4 
0 2 1 7 1 1 6 0 0 1 0 0 0 0 0 
0 5 3 0 1 0 1 0 0 5 1 0 3 2 0 
2 2 0 0 1 0 0 1 0 0 0 5 3 2 0 
1 2 0 3 4 0 12 15 0 55 54 6 77 70 26 
91 81 30 255 250 176 252 248 159 250 241 146 254 245 144 
253 245 138 254 246 137 249 241 130 255 249 137 251 245 133 
252 246 134 254 246 135 253 245 138 251 243 144 248 241 150 
255 250 166 217 215 140 69 68 3 156 155 98 145 145 91 
50 49 5 11 3 0 7 0 0 3 0 0 5 5 5 
0 0 2 0 0 2 3 2 0 1 0 0 1 1 0 
0 1 0 0 1 0 3 4 0 0 0 0 0 0 0 
0 3 3 0 3 2 0 0 0 1 0 0 3 2 0 
0 1 0 5 4 0 1 1 0 4 0 0 6 2 0 
111 108 63 231 231 169 246 246 174 255 252 178 255 247 176 
255 249 169 252 245 141 255 249 135 253 246 132 253 243 132 
255 245 137 254 246 139 255 249 137 247 241 127 249 246 129 
252 247 130 252 246 132 251 243 132 255 249 140 249 243 133 
252 248 140 251 248 145 254 253 160 253 251 166 255 252 171 
255 251 180 250 240 189 116 108 71 10 6 0 1 2 0 
3 6 0 3 5 2 0 0 0 2 1 0 0 0 0 
0 1 0 1 2 0 0 1 0 0 0 0 0 0 0 
0 0 7 0 0 4 1 1 0 3 2 0 1 0 0 
4 1 0 4 0 0 6 1 0 141 138 85 255 255 182 
255 250 162 247 241 145 255 248 150 249 239 142 254 244 149 
254 245 144 254 247 131 252 246 124 255 248 129 255 245 130 
253 244 139 251 242 139 254 247 140 254 248 136 255 252 135 
247 242 124 253 247 133 252 246 134 247 241 127 255 253 139 
246 243 128 252 249 136 250 245 141 252 247 147 245 237 138 
255 248 150 255 246 154 255 245 163 230 223 155 45 43 0 
3 3 0 0 2 0 0 2 3 0 1 4 0 5 0 
0 2 0 3 0 4 3 0 5 1 0 2 0 0 0 
0 0 8 0 0 4 0 0 0 1 0 0 3 0 0 
4 0 0 8 4 0 176 172 124 254 252 169 250 245 143 
253 244 139 255 245 137 255 243 133 255 249 141 254 241 136 
255 246 138 255 247 130 252 243 122 254 245 126 255 247 134 
255 245 139 252 243 138 253 245 138 251 243 132 249 242 126 
255 250 133 252 245 131 252 246 134 255 248 139 248 242 130 
252 246 132 252 246 132 251 243 134 255 245 137 255 245 134 
255 247 134 255 244 129 252 241 133 255 248 155 255 248 175 
166 163 112 4 3 0 1 2 0 0 1 3 0 1 0 
0 0 0 3 0 4 5 0 6 1 0 2 0 0 0 
0 4 3 0 4 2 1 0 0 4 0 0 5 0 0 
4 2 0 138 139 82 248 252 168 248 246 145 252 245 138 
255 242 143 255 245 147 255 244 140 238 221 115 255 247 143 
255 242 137 255 243 135 255 244 134 255 244 134 255 243 133 
255 248 138 254 242 132 255 243 135 255 246 136 255 247 132 
249 239 124 255 245 132 255 248 141 255 243 143 253 244 141 
250 242 133 255 246 135 249 236 131 239 227 119 252 242 129 
255 248 133 254 245 128 248 238 125 255 245 140 255 242 148 
255 250 165 171 161 99 23 12 0 7 0 0 6 0 0 
3 0 0 1 0 0 1 2 0 0 0 0 0 0 0 
0 4 1 0 2 0 4 0 0 7 0 0 14 3 0 
47 38 9 221 217 144 255 251 151 255 244 135 255 247 140 
255 237 144 230 205 112 202 185 81 240 226 119 255 243 139 
255 244 147 255 248 160 255 245 158 255 249 162 255 243 148 
255 242 137 255 250 138 255 246 134 255 242 130 255 242 128 
255 248 136 255 243 138 252 239 143 255 248 170 255 247 170 
255 251 159 255 245 147 255 246 144 220 207 102 247 233 124 
251 238 124 255 247 132 255 247 132 255 242 131 255 240 135 
255 243 141 255 246 168 58 38 5 60 41 34 22 7 4 
9 0 0 3 0 0 5 4 0 0 0 0 0 0 0 
0 1 0 4 3 0 10 0 0 29 12 5 73 53 46 
48 25 0 255 246 170 255 230 130 255 215 113 233 187 89 
222 181 89 226 195 102 217 202 99 255 253 147 248 243 143 
255 249 164 191 175 115 69 49 0 101 81 28 226 209 140 
255 247 151 248 236 124 255 242 127 255 243 128 255 244 129 
255 241 135 255 245 152 216 199 127 55 34 0 86 67 25 
148 129 70 255 247 169 254 241 149 255 248 146 218 199 97 
230 207 103 225 203 91 243 220 104 252 227 111 255 234 123 
255 235 132 255 243 163 96 68 29 69 40 24 72 45 34 
49 29 22 11 0 0 4 0 0 1 0 0 0 0 0 
5 1 0 6 0 0 44 30 21 68 46 35 64 35 29 
51 19 0 215 184 120 228 192 108 232 187 104 246 203 124 
215 176 109 106 78 4 206 194 94 250 245 143 255 254 169 
121 107 44 75 55 20 76 54 30 170 149 118 57 40 0 
255 244 156 252 235 127 254 234 122 252 229 117 251 228 116 
255 233 131 237 215 130 83 61 3 70 46 22 48 25 9 
38 18 0 94 75 17 242 223 146 255 236 149 194 169 87 
203 178 96 244 222 139 233 211 125 233 210 117 228 204 114 
234 209 125 245 220 156 60 34 1 58 32 17 67 44 28 
65 47 37 67 55 55 18 13 17 1 0 0 0 0 0 
4 0 0 47 38 31 58 42 26 52 29 15 62 31 28 
61 27 17 107 79 42 230 207 157 176 159 107 63 50 6 
13 0 0 16 7 0 254 249 157 242 232 135 187 165 105 
31 4 0 141 117 105 93 73 64 77 57 33 59 38 0 
255 237 154 248 225 123 253 221 118 250 215 111 255 223 119 
255 225 128 233 205 122 132 105 50 138 111 94 102 77 72 
182 159 143 71 47 13 140 110 50 247 216 151 162 135 82 
20 0 0 13 0 0 84 75 46 142 130 90 140 127 82 
138 121 78 107 91 57 36 23 6 32 19 10 27 17 7 
15 8 0 1 2 0 0 1 0 0 1 0 0 0 0 
6 0 0 6 0 0 8 0 0 22 6 0 26 0 1 
29 1 0 23 5 0 10 1 0 3 3 0 3 2 0 
13 0 0 96 77 47 250 224 147 255 237 151 112 78 30 
154 120 95 255 247 236 176 150 135 142 117 86 67 45 0 
255 238 154 242 212 114 234 196 99 237 193 94 238 195 93 
246 206 108 255 227 143 90 58 0 193 162 134 250 218 207 
48 19 3 67 32 2 105 58 6 255 216 158 236 197 154 
22 0 0 10 0 0 4 0 1 4 0 0 7 2 0 
7 0 0 8 0 0 4 0 0 3 0 0 4 0 0 
1 0 0 0 1 0 0 2 2 0 1 0 0 0 0 
1 0 5 0 0 0 0 1 0 8 4 1 7 0 2 
7 0 0 3 0 0 0 3 0 0 4 0 11 5 0 
27 0 0 235 179 144 255 197 137 255 230 165 218 172 120 
37 0 0 45 7 0 44 7 0 58 26 0 243 214 138 
248 217 127 252 217 123 254 211 117 239 193 97 252 208 103 
252 209 105 255 216 121 237 200 122 106 69 17 44 4 0 
77 34 0 63 11 0 250 182 121 255 191 125 251 192 136 
92 49 14 17 0 0 8 0 4 1 1 0 1 4 0 
2 3 0 0 0 0 3 2 0 3 0 0 10 0 1 
10 1 4 1 0 4 0 0 4 0 0 2 0 0 0 
0 0 5 0 1 4 1 5 6 0 0 2 1 0 4 
5 3 6 0 2 0 0 5 0 0 4 0 13 0 0 
102 34 11 215 115 83 206 88 48 208 101 55 252 180 130 
223 170 116 176 127 69 247 206 140 255 226 144 249 215 125 
252 219 124 251 215 119 255 219 124 237 195 97 255 214 108 
255 221 114 252 214 113 249 212 123 251 211 139 233 189 128 
211 158 106 223 151 101 249 148 96 213 101 51 215 114 68 
221 146 114 29 0 0 7 0 0 0 1 0 0 3 0 
0 1 4 0 0 5 0 0 2 3 0 0 6 0 2 
4 0 2 1 0 4 2 1 6 0 0 2 0 0 0 
0 1 4 0 0 2 1 0 0 3 0 0 3 0 0 
1 0 0 0 1 0 0 2 0 0 2 0 27 0 0 
222 109 95 235 78 59 236 73 54 220 72 44 205 92 50 
255 194 137 255 202 129 251 206 121 249 214 120 255 223 124 
251 219 118 255 223 120 255 223 120 255 228 121 254 226 117 
255 229 120 255 226 123 249 215 117 249 209 121 245 196 117 
246 184 111 255 167 111 209 61 31 233 63 48 225 63 50 
220 98 85 91 41 30 7 0 0 0 1 0 0 1 0 
0 0 7 0 0 9 3 0 5 3 0 2 0 1 0 
0 2 0 0 1 0 0 1 0 0 0 0 0 0 0 
0 2 0 0 1 0 3 0 0 4 0 0 1 0 0 
0 0 0 1 0 0 1 0 0 0 0 0 32 0 0 
233 106 99 246 74 64 251 70 63 234 69 50 212 83 44 
255 176 116 255 205 122 248 208 110 252 220 119 255 225 122 
250 211 108 255 219 117 244 205 100 234 197 91 255 222 115 
250 213 109 253 214 113 255 224 126 253 215 118 255 210 117 
255 206 120 231 131 69 231 68 49 255 63 64 255 65 65 
222 75 65 249 188 157 42 27 0 7 2 0 0 1 0 
0 0 4 0 0 7 4 0 5 1 0 4 0 2 0 
0 4 0 0 2 0 0 1 0 0 0 0 0 0 0 
0 2 0 0 2 0 1 0 0 3 0 0 0 0 0 
0 0 2 4 0 4 6 0 4 6 0 4 28 0 0 
218 110 108 237 85 82 242 73 68 238 78 62 210 86 48 
255 184 121 255 208 122 255 223 122 253 230 126 230 197 94 
203 145 48 232 161 69 242 173 78 251 185 89 240 175 81 
248 183 89 240 173 82 230 171 79 255 221 124 254 220 122 
255 213 121 222 137 70 232 83 63 250 70 71 255 77 74 
240 94 69 221 152 85 255 244 175 18 4 0 6 0 0 
1 0 0 1 0 2 3 0 4 1 0 4 0 1 2 
0 2 0 0 1 0 0 1 0 0 0 0 0 0 0 
0 1 0 0 1 0 1 0 0 1 0 0 0 0 4 
0 0 4 4 0 7 6 0 5 4 0 4 20 0 0 
96 18 18 221 108 104 233 97 85 226 95 67 190 93 40 
255 212 136 255 219 124 254 231 125 254 237 129 243 216 111 
231 177 79 245 179 85 238 174 77 232 169 72 238 178 82 
235 175 79 234 173 80 223 170 74 255 232 130 255 235 134 
255 224 127 243 175 100 211 91 56 240 90 75 247 92 72 
224 97 56 228 163 79 236 209 122 220 203 159 9 2 0 
3 0 0 1 0 0 3 0 2 3 0 4 0 0 2 
0 1 0 0 0 2 1 0 0 0 0 0 0 0 0 
0 0 5 0 0 5 3 0 4 1 0 4 0 1 4 
0 1 4 1 0 7 1 0 5 0 0 4 9 0 0 
25 0 0 133 74 60 204 123 93 196 116 63 255 211 130 
255 236 137 255 236 129 253 240 128 255 243 131 255 249 137 
255 243 135 255 236 129 255 237 130 255 239 132 255 236 128 
255 236 127 255 242 136 255 244 137 253 239 130 254 237 131 
255 233 130 255 233 145 214 134 71 205 105 55 207 99 50 
226 136 73 232 185 97 234 213 130 255 248 204 6 1 0 
1 1 0 0 1 0 3 0 0 4 0 0 3 0 0 
4 0 0 6 0 2 6 0 2 1 0 0 0 0 0 
1 0 7 1 0 5 1 0 4 1 0 4 0 0 2 
0 1 4 0 0 4 0 1 4 0 1 4 0 0 0 
7 0 0 18 0 0 75 34 4 255 221 171 255 245 169 
255 242 147 255 244 139 255 246 134 252 242 129 253 243 130 
255 248 136 252 242 129 255 246 133 254 247 133 250 244 130 
255 249 135 249 243 131 251 245 133 252 244 133 255 247 137 
255 243 136 255 240 140 255 234 148 255 193 116 223 155 82 
233 177 103 255 231 155 206 192 129 8 2 0 3 1 0 
0 1 0 0 0 0 1 0 0 3 0 0 3 0 0 
4 0 0 7 0 2 6 0 2 1 0 0 0 0 0 
1 0 2 1 0 0 1 0 0 0 0 0 0 0 0 
0 1 0 0 2 0 0 2 0 0 1 0 1 1 1 
6 5 3 6 0 0 14 0 0 16 0 0 81 67 30 
221 207 146 253 237 142 255 245 133 255 251 137 255 250 135 
255 248 134 255 246 131 255 249 135 252 246 132 254 248 134 
253 247 133 255 249 135 255 248 134 255 249 136 255 244 132 
255 243 134 248 220 111 225 188 82 215 177 78 228 194 105 
255 244 173 124 110 63 9 4 0 5 3 0 0 1 0 
0 1 0 0 1 0 0 1 0 0 1 0 0 1 0 
0 0 0 1 0 2 1 0 2 0 0 0 0 0 0 
1 0 0 1 0 0 0 1 0 0 1 0 0 1 0 
0 1 0 0 3 0 0 2 0 0 0 0 5 3 6 
1 0 0 1 1 1 2 1 0 4 0 0 10 0 0 
137 121 72 241 215 128 230 204 94 227 205 94 236 214 103 
240 216 106 247 223 113 243 225 115 244 231 119 246 233 121 
239 226 114 237 219 109 240 222 112 241 223 113 228 207 98 
228 200 91 234 204 94 235 205 91 217 193 87 230 214 129 
65 55 0 8 2 0 3 0 0 1 1 1 0 0 2 
0 0 2 0 1 0 0 2 0 0 2 0 0 1 0 
0 1 2 0 0 2 0 0 2 0 0 0 0 0 0 
1 0 0 1 0 0 0 1 0 0 2 0 0 2 0 
0 1 0 0 2 0 0 1 0 5 0 7 6 0 5 
8 0 1 6 0 0 1 1 1 2 2 0 11 0 0 
175 154 99 240 204 116 227 189 82 217 183 76 218 181 75 
229 184 81 223 178 75 221 182 77 219 185 78 222 187 83 
221 186 82 227 186 81 225 186 81 230 197 90 229 196 89 
237 200 94 242 203 98 255 222 115 229 204 112 122 107 48 
10 1 0 6 0 0 3 1 2 2 1 7 0 0 4 
0 0 0 0 1 0 0 1 0 0 1 2 0 1 4 
0 1 4 0 1 2 0 1 2 0 1 0 0 0 0 
3 0 0 1 0 0 0 1 0 0 2 0 0 1 0 
0 1 0 0 1 0 0 0 0 3 0 9 6 0 7 
9 0 0 4 0 0 0 0 2 0 1 0 10 3 0 
215 196 138 237 206 116 226 189 82 230 193 87 234 193 88 
233 181 80 242 188 88 239 190 88 240 195 92 236 191 88 
239 191 89 245 196 94 243 195 93 240 203 97 238 204 97 
247 213 106 253 220 115 255 238 135 227 206 125 255 247 207 
62 56 42 4 0 0 1 0 0 0 0 4 2 3 7 
0 1 0 0 1 0 0 1 0 0 0 2 0 0 2 
0 0 2 0 0 2 0 0 2 0 0 0 0 0 0 
4 0 2 3 0 0 0 0 0 0 1 0 0 1 2 
0 0 2 0 0 2 0 0 4 0 0 9 4 3 9 
3 0 0 5 5 0 0 2 5 0 2 0 5 6 0 
228 222 162 255 244 149 237 215 104 221 193 84 230 193 87 
241 198 94 234 186 84 246 197 94 240 191 88 244 195 92 
246 198 96 249 204 101 245 206 101 244 211 104 244 218 108 
251 231 119 255 239 131 255 243 141 254 244 172 93 86 60 
4 0 0 3 0 0 2 1 0 0 1 0 0 2 0 
0 2 0 0 1 0 0 0 0 3 0 0 4 0 0 
4 0 0 3 0 2 1 0 2 0 0 0 0 0 0 
4 0 0 3 0 0 1 0 0 0 0 2 0 1 4 
0 0 5 1 0 4 1 0 5 0 0 9 0 0 5 
0 1 0 0 1 0 2 4 3 0 3 0 4 7 0 
247 247 175 255 250 150 255 249 135 232 208 98 224 193 85 
227 190 84 237 196 90 244 200 95 243 196 92 245 198 94 
244 200 95 245 204 99 242 208 101 246 215 107 249 227 116 
252 241 126 253 247 137 255 255 155 161 157 84 6 1 0 
3 0 0 5 2 0 1 1 0 1 4 0 0 2 0 
0 3 0 0 2 0 0 0 0 3 0 0 6 0 0 
6 0 0 4 0 0 1 0 2 1 0 0 0 0 0 
3 0 0 1 0 0 0 1 0 0 1 0 0 2 2 
0 1 4 3 0 2 3 0 4 4 1 10 0 0 5 
3 3 1 0 1 0 4 4 0 4 3 0 177 176 111 
245 241 150 252 245 139 255 245 133 255 243 134 227 199 90 
232 199 92 235 198 91 238 200 93 243 202 94 243 202 94 
242 204 95 244 206 99 244 210 102 245 214 106 252 230 119 
255 243 131 254 248 138 255 252 147 127 125 48 8 3 0 
4 0 0 1 0 0 1 1 0 0 1 0 0 1 0 
0 2 0 0 2 0 0 1 2 0 0 0 1 0 0 
3 0 0 1 0 0 0 0 2 0 0 0 0 0 0 
1 0 0 0 1 0 0 1 0 0 1 0 0 2 2 
0 1 2 1 0 0 4 0 0 3 0 2 5 3 6 
0 0 2 2 4 0 3 1 0 30 27 0 255 255 174 
233 228 124 255 247 138 253 241 131 255 242 133 253 227 117 
234 203 95 234 202 93 230 196 86 235 199 89 240 204 94 
244 208 98 248 211 104 247 213 105 241 213 104 251 229 118 
255 243 131 254 248 136 251 249 140 239 237 154 7 3 0 
8 6 0 1 1 1 0 0 4 7 3 4 3 0 0 
0 1 0 0 1 0 0 1 2 0 0 2 0 0 0 
0 1 0 0 0 0 0 1 0 0 0 0 0 0 0 
0 0 0 0 0 0 0 0 0 0 0 2 0 1 4 
0 1 2 0 0 0 3 0 0 5 0 0 3 0 0 
0 1 2 0 2 0 2 5 0 192 191 143 254 247 159 
253 242 134 239 231 122 255 245 134 255 245 135 255 233 123 
236 205 97 229 197 88 241 207 97 234 198 86 239 203 91 
245 207 98 250 212 105 248 214 106 240 212 103 251 229 120 
255 243 133 253 247 135 237 234 121 255 252 161 99 97 49 
1 2 0 1 7 3 0 0 5 6 0 5 12 1 7 
4 0 0 1 0 0 0 0 4 0 0 5 0 0 5 
0 0 4 0 0 0 0 1 0 0 0 0 0 0 0 
1 0 2 0 0 0 0 0 2 0 0 2 0 1 4 
0 1 2 0 0 0 1 0 0 6 2 0 3 0 0 
0 2 1 0 2 0 1 4 0 251 248 193 255 246 154 
255 243 131 235 227 116 254 244 133 255 242 134 255 241 130 
236 208 99 236 204 95 229 195 85 239 203 91 239 203 91 
243 207 97 247 210 103 247 214 107 240 213 106 253 232 125 
255 246 135 253 247 135 233 225 114 254 247 156 246 243 190 
2 4 0 0 3 0 0 3 8 5 0 6 7 0 4 
6 0 0 3 0 0 0 0 2 0 1 5 0 0 5 
0 0 4 0 0 0 1 0 0 0 0 0 0 0 0 
6 0 0 3 0 0 0 0 0 0 1 0 0 1 2 
0 1 2 1 0 0 3 0 0 4 0 0 4 0 0 
2 1 0 1 2 0 9 6 0 255 247 185 255 243 148 
255 243 133 246 238 127 240 232 121 255 244 135 255 247 135 
230 206 96 234 204 94 235 201 91 237 201 91 239 203 93 
242 208 98 242 210 101 243 215 106 239 217 108 251 234 126 
254 243 135 255 247 138 241 229 121 253 242 152 253 248 192 
8 9 0 0 3 0 0 1 0 3 1 4 3 0 2 
1 0 4 0 0 2 0 2 0 0 3 0 0 3 0 
0 1 0 3 0 0 3 0 2 1 0 0 0 0 0 
6 0 0 3 0 0 0 1 0 0 2 0 0 2 0 
0 0 2 1 0 2 3 0 0 6 2 1 1 0 0 
0 0 0 4 2 0 8 2 0 247 232 175 246 222 132 
255 243 137 255 247 142 235 218 112 255 244 137 255 236 128 
239 211 102 244 212 103 238 201 94 238 200 91 242 204 95 
235 198 91 245 212 105 243 215 108 237 213 107 248 227 122 
255 240 136 238 221 117 255 237 131 249 230 138 251 241 182 
45 42 9 0 3 0 1 6 2 0 1 0 0 0 0 
0 0 4 0 0 4 0 2 0 0 4 0 0 4 0 
0 2 0 3 0 2 4 0 4 1 0 2 0 0 0 
1 0 4 0 0 2 0 2 0 0 3 0 0 1 0 
0 0 2 1 0 2 1 0 0 0 1 0 0 1 0 
0 2 3 1 0 0 10 0 0 198 177 134 235 204 124 
241 205 108 255 221 124 255 243 143 243 208 106 255 220 116 
239 200 95 252 211 105 246 203 98 244 201 96 243 202 96 
251 210 105 247 208 105 253 215 114 233 198 98 247 213 115 
245 212 115 245 213 112 255 221 114 243 213 117 255 237 178 
22 13 0 1 2 0 0 2 0 3 5 2 0 0 0 
1 0 2 1 0 2 0 0 2 0 1 0 0 2 0 
0 1 0 1 0 4 3 0 5 1 0 2 0 0 0 
0 0 5 0 0 4 0 2 0 0 3 0 0 1 0 
0 0 2 0 0 2 0 0 0 1 3 0 0 2 0 
0 4 7 3 3 3 8 0 0 77 57 24 238 205 138 
223 183 98 222 181 93 227 186 98 238 199 108 228 189 98 
230 193 102 213 176 85 247 212 120 245 212 119 237 203 113 
250 219 128 255 221 132 255 232 143 227 193 104 231 197 108 
227 193 106 243 206 115 241 199 99 244 208 120 181 158 104 
14 3 0 3 0 0 5 7 4 0 1 0 2 2 0 
3 0 0 1 0 2 0 0 2 0 1 0 0 2 0 
0 1 0 1 0 4 1 0 4 0 0 2 0 0 0 
0 0 7 0 0 4 0 2 0 0 3 0 0 1 2 
0 0 4 0 0 4 0 0 2 0 1 0 0 2 0 
0 1 4 0 0 2 6 0 0 18 0 0 160 130 80 
219 184 116 238 201 130 239 203 129 243 211 138 238 209 139 
217 194 124 252 233 165 255 244 177 255 246 180 255 248 182 
254 243 177 255 243 175 251 234 165 255 241 172 236 214 141 
237 211 137 250 218 143 236 197 118 240 203 135 104 80 42 
11 0 0 4 1 0 0 0 0 4 4 2 1 0 0 
3 0 0 3 0 0 1 0 0 0 1 0 0 2 0 
0 1 0 0 0 0 0 0 0 0 0 0 0 0 0 
0 0 5 0 0 4 0 2 0 0 2 0 0 0 2 
0 0 4 1 0 5 1 0 4 0 0 0 0 1 0 
0 2 2 0 1 3 5 2 0 10 0 0 51 31 0 
183 156 111 141 115 66 86 63 11 55 33 0 83 66 20 
31 18 0 16 9 0 7 3 0 6 6 0 5 5 0 
6 7 0 6 4 0 9 4 0 11 3 0 50 40 0 
55 41 0 37 17 0 165 135 83 131 102 60 25 7 0 
9 0 0 4 0 0 0 0 2 1 0 0 3 0 0 
4 0 0 3 0 0 0 0 0 0 1 0 0 2 0 
0 2 0 0 1 0 0 0 0 0 0 0 0 0 0 
1 0 2 0 0 0 0 1 0 0 1 0 0 1 0 
1 0 4 3 0 7 4 0 7 3 0 4 5 3 4 
2 4 1 0 1 0 3 4 0 3 1 0 8 0 0 
10 0 0 11 0 0 8 0 0 8 1 0 6 0 0 
8 4 0 3 1 0 1 1 0 0 1 0 0 1 0 
0 2 0 4 6 0 0 2 0 1 3 0 0 2 0 
1 4 0 4 1 0 10 0 0 11 0 0 8 1 0 
4 2 3 0 0 2 1 1 3 3 0 0 5 0 0 
4 0 2 3 0 2 0 0 0 0 2 0 0 2 0 
0 3 0 0 1 0 0 0 0 0 0 0 0 0 0 
1 0 0 0 0 0 0 0 0 0 1 0 0 0 0 
1 0 4 4 0 7 6 0 7 4 0 5 3 0 2 
0 1 0 0 3 0 1 4 0 0 2 0 3 0 0 
3 0 0 3 0 0 3 2 0 0 0 0 4 4 4 
0 0 2 1 0 5 1 2 7 1 2 7 0 1 8 
0 2 9 0 1 5 0 1 5 0 5 7 0 3 5 
0 3 2 0 3 1 3 0 0 6 1 0 0 0 2 
0 0 4 2 3 7 0 0 0 3 0 0 4 0 0 
4 0 2 3 0 2 0 0 2 0 2 0 0 4 0 
0 3 0 0 2 0 0 1 0 0 0 0 0 0 0 
